<?xml version="1.0" encoding="UTF-8"?>
<svg id="Capa_1" xmlns="http://www.w3.org/2000/svg" version="1.1" viewBox="0 0 2000 2000">
  <!-- Generator: Adobe Illustrator 29.1.0, SVG Export Plug-In . SVG Version: 2.1.0 Build 142)  -->
  <defs>
    <style>
      .st0, .st1 {
        fill: #3049BF;
      }

      .st1 {
        fill-rule: evenodd;
      }
    </style>
  </defs>
  <path class="st0" d="M1115.5,538h-226c-49.7,0-90,40.3-90,90v101.1c0,32.3,17,60.7,42.7,76.5v-158.5c0-35.7,28.9-64.6,64.6-64.6h191.5c35.7,0,64.6,28.9,64.6,64.6v158.5c25.6-15.9,42.7-44.2,42.7-76.5v-101.1c0-49.7-40.3-90-90-90h0Z"/>
  <rect class="st0" x="753" y="1346.5" width="91.3" height="91.3" rx="18.9" ry="18.9"/>
  <rect class="st0" x="1160.1" y="1346.5" width="91.3" height="91.3" rx="18.7" ry="18.7"/>
  <path class="st0" d="M1001.9,1139.9c-142,0-207.3-26.4-301.6-72.3v183.2c0,44.5,36.1,80.6,80.6,80.6h441.9c44.5,0,80.6-36.1,80.6-80.6v-186.1c-70.2,40.6-162.8,75.3-301.6,75.3h0Z"/>
  <g id="Page-1">
    <g id="Icon-Set-Filled">
      <path id="airplane" class="st1" d="M1427.9,981.3c-3.2-5.2-10.9-5.9-16.1-2.7l-26.5,16.5-36.5-24.2c-3.6-1.9-7.2-4-13-.4-3,1.9-9.2,5.8-3.5,15l22.2,28.8-21.9,13.7-15.7-8c-2.3-1.2-4.1-1.1-5.7,0-.8.7-6.2,3-3.8,7l15.9,19.5,10.6,22.8c1.8,2.9,4.3,1.9,7.9-.2,2.3-1.4,2.1-2.5,2.2-5.4v-17.4c0,0,21.9-13.7,21.9-13.7l16.1,32.6c5.7,9.2,11.9,5.3,14.9,3.4,5.8-3.7,5.5-7.8,5.4-11.9l-5.6-43.5,26.4-16.6c5.2-3.3,8-10.3,4.8-15.5"/>
    </g>
  </g>
  <path class="st0" d="M1222.9,680.4h-441.9c-44.5,0-80.6,36.1-80.6,80.6v279.3c83,38.2,189.7,63.7,301.7,63.7s218.6-25.4,301.5-63.6v-279.4c0-44.5-36.1-80.6-80.6-80.6h0ZM908,955.6c0,11-9,20-20,20h-10c-11,0-20-9-20-20v-128.6c0-11,9-20,20-20h10c11,0,20,9,20,20v128.6ZM1154.9,955.6c0,11-9,20-20,20h-10c-11.1,0-20-9-20-20v-128.6c0-11,9-20,20-20h10c11.1,0,20,9,20,20v128.6Z"/>
</svg>