<?xml version="1.0" encoding="UTF-8"?>
<svg id="Capa_1" data-name="Capa 1" xmlns="http://www.w3.org/2000/svg" viewBox="0 0 2000 2000">
  <defs>
    <style>
      .cls-1, .cls-2 {
        fill: #3049BF;
      }

      .cls-2 {
        fill-rule: evenodd;
      }
    </style>
  </defs>
  <path class="cls-1" d="M1115.49,538h-226.05c-49.69,0-89.98,40.28-89.98,89.98v101.13c0,32.32,17.05,60.66,42.65,76.52v-158.45c0-35.67,28.92-64.59,64.59-64.59h191.53c35.67,0,64.59,28.92,64.59,64.59v158.45c25.59-15.86,42.65-44.2,42.65-76.52v-101.13c0-49.69-40.28-89.98-89.98-89.98Z"/>
  <rect class="cls-1" x="752.98" y="1346.46" width="91.28" height="91.28" rx="18.86" ry="18.86"/>
  <rect class="cls-1" x="1160.08" y="1346.46" width="91.28" height="91.28" rx="18.74" ry="18.74"/>
  <path class="cls-1" d="M1001.91,1139.94c-141.99,0-207.27-26.43-301.59-72.35v183.19c0,44.54,36.1,80.64,80.64,80.64h441.91c44.54,0,80.64-36.1,80.64-80.64v-186.14c-70.21,40.63-162.8,75.29-301.59,75.29Z"/>
  <g id="Page-1">
    <g id="Icon-Set-Filled">
      <path id="airplane" class="cls-2" d="M1427.89,981.35c-3.24-5.2-10.87-5.92-16.08-2.65l-26.53,16.52-36.53-24.19c-3.6-1.88-7.16-4.05-13.01-.38-2.98,1.87-9.19,5.75-3.46,14.95l22.23,28.78-21.95,13.68-15.68-8.01c-2.32-1.21-4.1-1.09-5.69.01-.82.65-6.25,3.01-3.77,7l15.87,19.53,10.58,22.83c1.8,2.89,4.31,1.93,7.93-.21,2.32-1.45,2.14-2.51,2.21-5.39l.06-17.4,21.83-13.68,16.07,32.6c5.73,9.2,11.94,5.31,14.92,3.45,5.85-3.67,5.47-7.82,5.37-11.89l-5.56-43.48,26.45-16.58c5.22-3.26,7.99-10.3,4.75-15.5"/>
    </g>
  </g>
  <path class="cls-1" d="M1222.87,680.37h-441.91c-44.54,0-80.64,36.1-80.64,80.64v279.3c82.98,38.25,189.74,63.68,301.66,63.68s218.57-25.39,301.53-63.61v-279.36c0-44.54-36.1-80.64-80.64-80.64ZM908.03,955.64c0,11.05-8.96,20.02-20.02,20.02h-9.97c-11.05,0-20.02-8.96-20.02-20.02v-128.62c0-11.05,8.96-20.02,20.02-20.02h9.97c11.05,0,20.02,8.96,20.02,20.02v128.62ZM1154.9,955.64c0,11.05-8.96,20.02-20.02,20.02h-9.97c-11.05,0-20.02-8.96-20.02-20.02v-128.62c0-11.05,8.96-20.02,20.02-20.02h9.97c11.05,0,20.02,8.96,20.02,20.02v128.62Z"/>
</svg>